<svg xmlns="http://www.w3.org/2000/svg" width="46" height="46" viewBox="0 0 46 46"><g transform="translate(-1354 -3836)"><path d="M23,1a22.006,22.006,0,0,0-8.563,42.272A22.006,22.006,0,0,0,31.563,2.728,21.861,21.861,0,0,0,23,1m0-1A23,23,0,1,1,0,23,23,23,0,0,1,23,0Z" transform="translate(1354 3836)" fill="#382c22"/><g transform="translate(1358.5 3841)"><path d="M18,29a.5.5,0,0,1-.5-.5V7.5a.5.5,0,0,1,1,0v21A.5.5,0,0,1,18,29Z" transform="translate(0.5)" fill="#382c22"/><path d="M17.5,14a.5.5,0,0,1-.384-.18L12.5,8.281,7.884,13.82a.5.5,0,1,1-.768-.64l5-6a.5.5,0,0,1,.768,0l5,6A.5.5,0,0,1,17.5,14Z" transform="translate(6)" fill="#382c22"/></g></g></svg>